<svg xmlns="http://www.w3.org/2000/svg" xmlns:xlink="http://www.w3.org/1999/xlink" width="500" zoomAndPan="magnify" viewBox="0 0 375 374.999991" height="500" preserveAspectRatio="xMidYMid meet" version="1.0"><defs><clipPath id="0276dd5857"><path d="M 37.5 19.902344 L 337.5 19.902344 L 337.5 355.152344 L 37.5 355.152344 Z M 37.5 19.902344 " clip-rule="nonzero"/></clipPath></defs><g clip-path="url(#0276dd5857)"><path fill="#0277bd" d="M 337.453125 19.902344 L 37.546875 19.902344 L 64.007812 319.863281 L 187.5 355.152344 L 310.992188 319.863281 Z M 337.453125 19.902344 " fill-opacity="1" fill-rule="nonzero"/></g><path fill="#039be5" d="M 187.5 46.371094 L 187.5 327.804688 L 286.292969 299.570312 L 308.34375 46.371094 Z M 187.5 46.371094 " fill-opacity="1" fill-rule="nonzero"/><path fill="#ffffff" d="M 267.769531 90.480469 L 187.5 90.480469 L 187.5 125.769531 L 230.722656 125.769531 L 228.074219 161.058594 L 187.5 161.058594 L 187.5 196.347656 L 226.3125 196.347656 L 223.664062 236.050781 L 187.5 248.402344 L 187.5 285.457031 L 257.183594 262.515625 L 263.359375 161.058594 Z M 267.769531 90.480469 " fill-opacity="1" fill-rule="nonzero"/><path fill="#eeeeee" d="M 187.5 90.480469 L 187.5 125.769531 L 108.996094 125.769531 L 106.347656 90.480469 Z M 146.925781 161.058594 L 148.6875 196.347656 L 187.5 196.347656 L 187.5 161.058594 Z M 150.453125 213.996094 L 115.167969 213.996094 L 117.816406 262.515625 L 187.5 285.457031 L 187.5 248.402344 L 151.335938 236.050781 Z M 150.453125 213.996094 " fill-opacity="1" fill-rule="nonzero"/></svg>