<svg xmlns="http://www.w3.org/2000/svg" xmlns:xlink="http://www.w3.org/1999/xlink" width="500" zoomAndPan="magnify" viewBox="0 0 375 374.999991" height="500" preserveAspectRatio="xMidYMid meet" version="1.0"><defs><clipPath id="3a793e8cb3"><path d="M 19.660156 19.660156 L 355.660156 19.660156 L 355.660156 355.660156 L 19.660156 355.660156 Z M 19.660156 19.660156 " clip-rule="nonzero"/></clipPath></defs><g clip-path="url(#3a793e8cb3)"><path fill="#91003b" d="M 19.660156 19.660156 L 19.660156 355.660156 L 355.660156 355.660156 L 355.660156 19.660156 Z M 50.207031 50.207031 L 325.113281 50.207031 L 325.113281 325.113281 L 50.207031 325.113281 Z M 111.296875 111.296875 L 111.296875 264.023438 L 141.84375 264.023438 L 141.84375 111.296875 Z M 172.386719 111.296875 L 172.386719 141.84375 L 264.023438 141.84375 L 264.023438 111.296875 Z M 172.386719 172.386719 L 172.386719 202.933594 L 264.023438 202.933594 L 264.023438 172.386719 Z M 172.386719 233.476562 L 172.386719 264.023438 L 264.023438 264.023438 L 264.023438 233.476562 Z M 172.386719 233.476562 " fill-opacity="1" fill-rule="nonzero"/></g></svg>