<svg xmlns="http://www.w3.org/2000/svg" xmlns:xlink="http://www.w3.org/1999/xlink" width="500" zoomAndPan="magnify" viewBox="0 0 375 374.999991" height="500" preserveAspectRatio="xMidYMid meet" version="1.0"><defs><clipPath id="a036c02a23"><path d="M 37.5 17 L 337.5 17 L 337.5 358 L 37.5 358 Z M 37.5 17 " clip-rule="nonzero"/></clipPath></defs><g clip-path="url(#a036c02a23)"><path fill="#e44d26" d="M 64.734375 323.402344 L 37.414062 17.292969 L 337.585938 17.292969 L 310.246094 323.359375 L 187.308594 357.394531 Z M 64.734375 323.402344 " fill-opacity="1" fill-rule="nonzero"/></g><path fill="#f16529" d="M 286.828125 303.867188 L 310.203125 42.324219 L 187.5 42.324219 L 187.5 331.386719 Z M 286.828125 303.867188 " fill-opacity="1" fill-rule="nonzero"/><path fill="#ebebeb" d="M 187.371094 79.863281 L 93.265625 79.863281 L 103.402344 193.394531 L 187.5 193.394531 L 187.5 155.855469 L 137.777344 155.855469 L 134.339844 117.414062 L 187.5 117.414062 L 187.5 79.863281 Z M 187.5 253.234375 L 187.339844 253.277344 L 145.488281 241.988281 L 142.828125 212.050781 L 105.085938 212.050781 L 110.351562 270.996094 L 187.328125 292.25 L 187.5 292.199219 Z M 187.5 253.234375 " fill-opacity="1" fill-rule="nonzero"/><path fill="#ffffff" d="M 187.371094 193.394531 L 233.648438 193.394531 L 229.394531 242.074219 L 187.480469 253.371094 L 187.480469 292.433594 L 264.519531 271.101562 L 274.839844 155.835938 L 187.5 155.835938 Z M 280.605469 89.9375 L 281.5 79.863281 L 187.351562 79.863281 L 187.351562 117.402344 L 278.117188 117.402344 L 278.863281 108.964844 Z M 280.605469 89.9375 " fill-opacity="1" fill-rule="nonzero"/></svg>