<svg xmlns="http://www.w3.org/2000/svg" xmlns:xlink="http://www.w3.org/1999/xlink" width="500" zoomAndPan="magnify" viewBox="0 0 375 374.999991" height="500" preserveAspectRatio="xMidYMid meet" version="1.0"><defs><clipPath id="07c1da5d73"><path d="M 14 13.542969 L 361.542969 13.542969 L 361.542969 361 L 14 361 Z M 14 13.542969 " clip-rule="nonzero"/></clipPath><clipPath id="8ef8870726"><path d="M 14 13.542969 L 189 13.542969 L 189 361 L 14 361 Z M 14 13.542969 " clip-rule="nonzero"/></clipPath></defs><g clip-path="url(#07c1da5d73)"><path fill="#ffc44d" d="M 26.492188 12.730469 C 23.007812 12.730469 19.695312 14.226562 17.390625 16.839844 C 15.085938 19.449219 14.011719 22.921875 14.445312 26.378906 L 46.816406 285.355469 C 47.320312 289.382812 49.804688 292.890625 53.433594 294.707031 L 182.921875 359.449219 C 186.339844 361.160156 190.363281 361.160156 193.78125 359.449219 L 323.269531 294.707031 C 326.898438 292.890625 329.382812 289.382812 329.886719 285.355469 L 362.257812 26.378906 C 362.6875 22.921875 361.617188 19.449219 359.3125 16.839844 C 357.007812 14.226562 353.691406 12.730469 350.210938 12.730469 Z M 26.492188 12.730469 " fill-opacity="1" fill-rule="nonzero"/></g><g clip-path="url(#8ef8870726)"><path fill="#e5b045" d="M 188.351562 12.730469 L 188.351562 360.730469 C 186.492188 360.730469 184.632812 360.304688 182.921875 359.449219 L 53.433594 294.707031 C 49.804688 292.890625 47.320312 289.382812 46.816406 285.355469 L 14.445312 26.378906 C 14.011719 22.921875 15.085938 19.449219 17.390625 16.839844 C 19.695312 14.226562 23.007812 12.730469 26.492188 12.730469 Z M 188.351562 12.730469 " fill-opacity="1" fill-rule="evenodd"/></g><path fill="#cfd8dc" d="M 164.074219 61.289062 C 170.777344 61.289062 176.214844 66.726562 176.214844 73.429688 L 176.214844 283.847656 C 176.214844 288.175781 173.910156 292.175781 170.164062 294.347656 C 166.421875 296.519531 161.808594 296.535156 158.050781 294.390625 L 101.398438 262.015625 C 95.578125 258.691406 93.554688 251.273438 96.882812 245.453125 C 100.210938 239.632812 107.625 237.609375 113.445312 240.9375 L 151.933594 262.929688 L 151.933594 73.429688 C 151.933594 66.726562 157.371094 61.289062 164.074219 61.289062 Z M 164.074219 61.289062 " fill-opacity="1" fill-rule="evenodd"/><path fill="#eceff1" d="M 200.492188 73.429688 C 200.492188 66.726562 205.929688 61.289062 212.632812 61.289062 L 293.5625 61.289062 C 300.269531 61.289062 305.703125 66.726562 305.703125 73.429688 C 305.703125 80.132812 300.269531 85.570312 293.5625 85.570312 L 224.773438 85.570312 L 224.773438 163.503906 L 282.835938 150.601562 C 286.621094 149.761719 290.578125 150.777344 293.488281 153.339844 C 296.398438 155.898438 297.910156 159.691406 297.558594 163.550781 L 289.46875 252.574219 C 289.085938 256.761719 286.566406 260.453125 282.804688 262.335938 L 218.0625 294.707031 C 212.066406 297.707031 204.773438 295.273438 201.773438 289.277344 C 198.777344 283.28125 201.207031 275.988281 207.203125 272.992188 L 265.898438 243.640625 L 271.875 177.910156 L 215.265625 190.488281 C 211.671875 191.289062 207.910156 190.414062 205.039062 188.109375 C 202.164062 185.804688 200.492188 182.320312 200.492188 178.640625 Z M 200.492188 73.429688 " fill-opacity="1" fill-rule="evenodd"/></svg>